<svg xmlns="http://www.w3.org/2000/svg" viewBox="0 0 1920 1080">
  <defs><linearGradient id="f" x1="0" y1="0" x2="0" y2="1"><stop offset="0" stop-color="#1a1022"/><stop offset="1" stop-color="#0c0914"/></linearGradient></defs>
  <rect width="1920" height="1080" fill="url(#f)"/>
  <!-- gaisru pasvaiste -->
  <ellipse cx="400" cy="180" rx="360" ry="140" fill="#8a3a16" opacity="0.25"/>
  <ellipse cx="1500" cy="140" rx="300" ry="120" fill="#8a1616" opacity="0.2"/>
  <!-- namu eiles perspektyvoje -->
  <path d="M0 1080 V420 L180 380 L360 430 L360 1080 Z" fill="#110d1c"/>
  <path d="M360 1080 V470 L520 430 L660 480 L660 1080 Z" fill="#150f20"/>
  <path d="M1920 1080 V420 L1740 380 L1560 430 L1560 1080 Z" fill="#110d1c"/>
  <path d="M1560 1080 V470 L1400 430 L1260 480 L1260 1080 Z" fill="#150f20"/>
  <!-- langai -->
  <g fill="#3a2210" opacity="0.8"><rect x="80" y="500" width="40" height="60"/><rect x="200" y="520" width="40" height="60"/><rect x="1620" y="500" width="40" height="60"/><rect x="1420" y="520" width="40" height="60"/></g>
  <!-- gatve -->
  <path d="M660 1080 L780 480 L1140 480 L1260 1080 Z" fill="#171225"/>
  <g stroke="#0e0a18" stroke-width="5"><path d="M720 800 h480 M690 950 h540"/></g>
  <!-- varpine gale -->
  <g><rect x="900" y="230" width="120" height="250" fill="#0d0a16"/><path d="M880 230 h160 l-20 -60 h-120 z" fill="#0d0a16"/><path d="M940 280 q20 -30 40 0 v40 h-40 z" fill="#2a2210"/></g>
  <text x="960" y="60" text-anchor="middle" font-family="monospace" font-size="30" fill="#4d4766" opacity="0.85">PLACEHOLDER - Miesto gatve su varpine (M4)</text>
</svg>
