<svg xmlns="http://www.w3.org/2000/svg" viewBox="0 0 620 1000">
  <path d="M120 1000 L112 420 Q124 315 225 292 L395 292 Q496 315 508 420 L500 1000 Z" fill="#2a2030"/>
  <path d="M185 1000 L190 460 Q200 370 310 355 Q420 370 430 460 L435 1000 Z" fill="#3a3f4c"/>
  <path d="M190 460 L430 560 L430 600 L190 500 Z" fill="#a5793a"/>
  <!-- ranka istiesta rodo -->
  <path d="M460 470 Q570 420 610 350 L620 390 Q590 470 490 520 Z" fill="#2a2030"/>
  <path d="M590 336 q26 -16 42 8 q10 20 -12 34 q-22 12 -36 -8 q-10 -18 6 -34 z" fill="#8a7666"/>
  <path d="M140 430 Q152 335 250 312 L250 362 Q192 375 178 452 Z" fill="#4a505e"/>
  <path d="M480 430 Q468 335 370 312 L370 362 Q428 375 442 452 Z" fill="#4a505e"/>
  <path d="M254 292 q-12 -36 -8 -80 q8 -74 64 -74 q58 0 66 74 q4 44 -8 80 q-26 28 -58 28 q-30 0 -56 -28 z" fill="#8a7666"/>
  <path d="M254 212 q8 -74 56 -74 l0 182 q-30 0 -56 -28 q-12 -36 -8 -80 z" fill="#6d5c4e"/>
  <path d="M256 194 q54 -26 110 0 q7 20 1 34 q-56 -22 -112 0 q-6 -14 1 -34 z" fill="#241a14"/>
  <path d="M276 282 q36 30 72 8 q6 30 -12 46 q-30 16 -54 -6 q-10 -26 -6 -48 z" fill="#3a2e24"/>
  <path d="M292 296 q18 10 34 0 l-4 11 q-13 7 -26 0 z" fill="#241a14"/>
  <path d="M270 236 h84 l-10 14 h-66 z" fill="#3f342a"/>
  <text x="310" y="980" text-anchor="middle" font-family="monospace" font-size="24" fill="#8b829b" opacity="0.9">PLACEHOLDER: Prazaras (isako)</text>
</svg>
